<svg width="64" height="64" viewBox="0 0 64 64" fill="none" xmlns="http://www.w3.org/2000/svg">
  <defs>
    <linearGradient id="bgGradient" x1="8" y1="8" x2="56" y2="56" gradientUnits="userSpaceOnUse">
      <stop offset="0" stop-color="#04050A"/>
      <stop offset="1" stop-color="#0C1F4A"/>
    </linearGradient>
    <linearGradient id="accentGradient" x1="16" y1="12" x2="48" y2="52" gradientUnits="userSpaceOnUse">
      <stop offset="0" stop-color="#66C6FF"/>
      <stop offset="1" stop-color="#00D9FF"/>
    </linearGradient>
    <filter id="glow" x="6" y="6" width="52" height="52" filterUnits="userSpaceOnUse" color-interpolation-filters="sRGB">
      <feGaussianBlur stdDeviation="1.4" result="blur"/>
      <feMerge>
        <feMergeNode in="blur"/>
        <feMergeNode in="SourceGraphic"/>
      </feMerge>
    </filter>
  </defs>

  <rect x="4" y="4" width="56" height="56" rx="15" fill="url(#bgGradient)"/>
  <rect x="4" y="4" width="56" height="56" rx="15" stroke="#63C3FF" stroke-opacity="0.24"/>

  <path d="M17 46V18H34.5C40.3 18 44 21.2 44 26C44 29.9 41.8 33 37.7 34.1L46 46" stroke="url(#accentGradient)" stroke-width="5.2" stroke-linecap="round" stroke-linejoin="round" filter="url(#glow)"/>
  <path d="M17 18H35C39.4 18 42 20.6 42 24.2C42 27.9 39.4 30.5 35 30.5H17" stroke="#B8ECFF" stroke-opacity="0.18" stroke-width="1.4" stroke-linecap="round"/>
  <path d="M34.7 34.4L45.5 46" stroke="#B8ECFF" stroke-opacity="0.16" stroke-width="1.4" stroke-linecap="round"/>

  <circle cx="32" cy="32" r="23" stroke="#7FD1FF" stroke-opacity="0.18" stroke-width="1.2" stroke-dasharray="2.5 3.5"/>
  <path d="M13 32H18" stroke="#99DEFF" stroke-opacity="0.34" stroke-width="1.2" stroke-linecap="round"/>
  <path d="M46 32H51" stroke="#99DEFF" stroke-opacity="0.34" stroke-width="1.2" stroke-linecap="round"/>
  <path d="M22 50H42" stroke="#00D9FF" stroke-opacity="0.28" stroke-width="1.2" stroke-linecap="round"/>
</svg>
